# xmcd
#
# Track frame offsets:
#	150
#	23127
#	51775
#	83918
#	129782
#	153311
#	197443
#	225215
#
# Disc length: 3090
#
# Revision: 1
# Processed by: cddbd v1.5.1PL0 Copyright (c) Steve Scherf et al.
# Submitted via: CDex 1.50
# Normalized: r0:TDELIM( - )
#
DISCID=4e0c1008
DTITLE=Savoy Jazz - Jazz for a Day in the Park Disk 1
DYEAR=2003
DGENRE=Jazz
TTITLE0=Clifford Jordan - Blues for Muse
TTITLE1=Huston Person and Ron Carter - Joy Spring
TTITLE2=Grant Green - Samba De Orpheus
TTITLE3=Phil Woods - Willow Weep for Me
TTITLE4=Willis Jackson - The Breeze and I
TTITLE5=Dr. Lonnie Smith - River Walk
TTITLE6=Bobby Hutcherson - Nascimento
TTITLE7=Pete (LaRoca) Sims - And So
EXTD=YEAR: 2003
EXTT0=
EXTT1=
EXTT2=
EXTT3=
EXTT4=
EXTT5=
EXTT6=
EXTT7=
PLAYORDER=
